<svg width="24" height="24" viewBox="0 0 24 24" fill="none" xmlns="http://www.w3.org/2000/svg">
<g id="icon_telegram.svg" clip-path="url(#clip0_25_142)">
<path id="Vector" fill-rule="evenodd" clip-rule="evenodd" d="M12 24C18.6274 24 24 18.6274 24 12C24 5.37258 18.6274 0 12 0C5.37258 0 0 5.37258 0 12C0 18.6274 5.37258 24 12 24ZM17.837 7.00642C18.0215 7.1909 18.0182 7.59068 17.9768 7.8671L16.5649 17.1C16.4959 17.5495 16.2875 18.1012 15.9271 18.2794C15.5297 18.4759 14.9255 18.3256 14.5097 18.045L10.5425 15.3697C10.1197 15.0845 10.067 14.4823 10.4337 14.1278L14.4983 10.2004C14.6096 10.0928 14.6707 9.88654 14.5782 9.77716C14.4863 9.66834 14.2601 9.6816 14.1416 9.76243L9.12587 13.1843C8.3371 13.7224 7.34965 13.8812 6.43189 13.6178L4.64106 13.0812C4.34663 12.9895 4.07941 12.7834 4.07058 12.5838C4.062 12.3896 4.25975 12.1786 4.5928 12.0193L16.6746 6.95612C17.0408 6.80065 17.6038 6.77042 17.837 7.00642Z" fill="white"/>
</g>
<defs>
<clipPath id="clip0_25_142">
<rect width="24" height="24" fill="white"/>
</clipPath>
</defs>
</svg>
